<svg xmlns="http://www.w3.org/2000/svg" viewBox="0 0 681 683"><defs><style>.cls-1{fill:#f2f2f2;}</style></defs><g id="Capa_2" data-name="Capa 2"><g id="Capa_4" data-name="Capa 4"><path class="cls-1" d="M103.36,41.7c-12.87,14.73-45.3,60.62-70,127C19.9,204.75.14,259.28,0,333.3c-.14,73.27,19,126.76,33.34,166.78C57,566.17,88.83,617.57,105,636.74c119.49,141.41,573.15-66.5,576-285.15C683.85,129.84,222.84-95.08,103.36,41.7Zm27.25,560.79c-10.28-12.21-33.66-55-34.29-54.68-.21.12,2.51,5.2,4.68,9.19,0-9.32,1.61-21.94,10.38-30.46,9.15-8.89,18.49-5.19,28.91-14.44,10.84-9.62,9.88-19.67,17.2-34.54,5.42-11,15.94-25.11,38.51-37.56,3.33,3.32,65.29,63.83,115,43.22a57.35,57.35,0,0,0,16.7-10.73c20.11,9.27,71.77,30.08,106.88,6.19,3.52-2.39,6.91-5.26,15.78-15.76,30.08-35.64,59.75-70.79,67.59-122.62,2.31-15.28,5.88-41.06-5.21-68.78a121.62,121.62,0,0,0-42.58-53.67c23.21,36.67-10.32,120.73-65.41,106.77a26.25,26.25,0,0,1-5.33-7.3c-4.07-8.4-2.26-17-1.88-19.2,1.36-8.05-.92-23.25-17.58-54.73,2.13,29.54-14.56,55.22-38.08,62.34-22.58,6.84-42.59-6.12-45.74-8.23-23.4-31.55-15.56-56.15-65.73-78.84,49.87-8,63.79-97-6.38-24.25,6.93-11.29,9.72-26.82-6.8-37.88-12.9,20-21.25,32.87-21.36,32.88-5-6.28-30.38-36.84-72-39.56a94.65,94.65,0,0,0-40.37,6.4c18.12-38.38,37.06-64.75,45.75-74.74C233.37-38.25,635.48,158.68,633,352.84,630.53,544.27,234.82,726.31,130.61,602.49Zm118.5-267.6a24.72,24.72,0,0,1,3.25-7.23c5.89-8,32,2.18,32.86,14.24.84,11.89-23,25.23-30.1,18.09a27.9,27.9,0,0,1-4.52-7.11A25.18,25.18,0,0,1,248,344,24.79,24.79,0,0,1,249.11,334.89Z"/></g></g></svg>