<svg xmlns="http://www.w3.org/2000/svg" viewBox="0 0 964.85 227.26"><defs><style>.cls-1,.cls-2{fill:#f2f2f2;}.cls-2{font-size:179.08px;font-family:Prompt-Medium, Prompt;font-weight:500;}.cls-3{letter-spacing:-0.02em;}.cls-4{letter-spacing:-0.06em;}.cls-5{letter-spacing:-0.03em;}</style></defs><g id="Capa_2" data-name="Capa 2"><g id="Capa_1-2" data-name="Capa 1"><path class="cls-1" d="M781.61,13.16c-4.08,4.65-14.37,19.13-22.21,40.06-4.26,11.39-10.53,28.6-10.58,52,0,23.12,6,40,10.58,52.63,7.5,20.85,17.6,37.07,22.74,43.12,37.9,44.62,181.81-21,182.7-90C965.75,41,819.51-30,781.61,13.16Zm8.64,177c-3.26-3.86-10.67-17.37-10.87-17.26a25.76,25.76,0,0,0,1.48,2.9c0-2.94.51-6.92,3.29-9.61s5.87-1.64,9.18-4.56,3.13-6.2,5.45-10.9c1.72-3.46,5.06-7.92,12.22-11.85,1,1,20.71,20.14,36.46,13.64a18.06,18.06,0,0,0,5.3-3.39c6.38,2.93,22.77,9.5,33.9,2,1.12-.76,2.19-1.66,5-5,9.54-11.24,19-22.33,21.44-38.69.73-4.82,1.86-13-1.65-21.7A38.45,38.45,0,0,0,898,68.74c7.36,11.57-3.27,38.1-20.75,33.69a8.11,8.11,0,0,1-1.69-2.3,9.79,9.79,0,0,1-.6-6.06c.43-2.54-.29-7.34-5.57-17.27.67,9.32-4.62,17.43-12.08,19.67-7.16,2.16-13.51-1.93-14.51-2.59-7.43-10-4.94-17.72-20.85-24.88,15.82-2.51,20.23-30.61-2-7.65,2.2-3.57,3.09-8.47-2.15-12-4.1,6.31-6.74,10.37-6.78,10.38-1.58-2-9.64-11.63-22.86-12.49a30.21,30.21,0,0,0-12.8,2C781,37.19,787,28.87,789.79,25.72c33.06-37.79,160.62,24.35,159.83,85.62C948.84,171.74,823.31,229.19,790.25,190.12Zm37.59-84.45a7.83,7.83,0,0,1,1-2.28c1.86-2.51,10.15.69,10.42,4.5s-7.28,8-9.55,5.7a8.88,8.88,0,0,1-1.43-2.24,7.4,7.4,0,0,1-.48-5.68Z"/><text class="cls-2" transform="translate(0 158.31)">ni<tspan class="cls-3" x="156.33" y="0">c</tspan><tspan class="cls-4" x="251.78" y="0">o</tspan><tspan class="cls-5" x="355.11" y="0">w</tspan><tspan x="498.38" y="0">eb</tspan></text></g></g></svg>